<?xml version="1.0" encoding="utf-8"?>
<!-- Generator: Adobe Illustrator 25.2.1, SVG Export Plug-In . SVG Version: 6.00 Build 0)  -->
<svg version="1.1" id="Ebene_1" xmlns="http://www.w3.org/2000/svg" xmlns:xlink="http://www.w3.org/1999/xlink" x="0px" y="0px"
	 viewBox="0 0 283.5 102.7" style="enable-background:new 0 0 283.5 102.7;" xml:space="preserve">
<path d="M82.7,40.6c-3.1,0-5.8,1.1-8,3.3c-2.2,2.2-3.3,4.9-3.3,8v19.5c0,0.4,0.2,0.8,0.5,1.1c0.3,0.3,0.7,0.5,1.1,0.5
	s0.8-0.2,1.1-0.5c0.3-0.3,0.5-0.7,0.5-1.1V59.9c0,0,0.1,0.1,0.1,0.1c2.2,2.2,4.9,3.3,8,3.3s5.8-1.1,8-3.3c2.2-2.2,3.3-4.9,3.3-8
	c0-3.1-1.1-5.8-3.3-8C88.5,41.7,85.8,40.6,82.7,40.6z M88.4,57.7c-1.6,1.6-3.5,2.4-5.7,2.4c-2.2,0-4.2-0.8-5.7-2.4
	c-1.6-1.6-2.4-3.5-2.4-5.7c0-2.2,0.8-4.2,2.4-5.7c1.6-1.6,3.5-2.4,5.7-2.4c2.2,0,4.2,0.8,5.7,2.4c1.6,1.6,2.4,3.5,2.4,5.7
	C90.8,54.2,90,56.1,88.4,57.7z M162.4,5.8c0-3.2,2.6-5.8,5.8-5.8s5.8,2.6,5.8,5.8c0,3.2-2.6,5.8-5.8,5.8S162.4,9,162.4,5.8z
	 M158.7,19.1c4,0,7-1.3,9.6-6c2.6,4.7,5.6,6,9.6,6c3.3,0,6.2-2,8.3-4.4l-6.1,20.4c-3.1-3.1-7.3-4.5-11.9-4.5s-8.8,1.4-11.9,4.5
	l-6.1-20.4C152.4,17.2,155.4,19.1,158.7,19.1z M11.3,40.6c-3.1,0-5.8,1.1-8,3.3C1.1,46.2,0,48.8,0,52c0,3.1,1.1,5.8,3.3,8
	c2.2,2.2,4.9,3.3,8,3.3s5.8-1.1,8-3.3c0,0,0.1-0.1,0.1-0.1v3.4c0,1.3-0.5,2.6-1.6,3.9c-1.7,1.7-3.8,2.6-6.3,2.6
	c-2.5,0-4.6-0.9-6.3-2.6c-0.6-0.6-1.2-1.3-1.6-2c-0.1-0.2-0.2-0.3-0.3-0.5c-0.3-0.3-0.7-0.5-1.2-0.5c-0.4,0-0.8,0.2-1.1,0.5
	c-0.3,0.3-0.5,0.7-0.5,1.1c0,0.3,0.1,0.6,0.2,0.9c0.6,1,1.3,2,2.1,2.8c2.4,2.4,5.2,3.6,8.6,3.6c3.4,0,6.2-1.2,8.6-3.6
	c1.7-1.7,2.6-3.8,2.6-6.2V52c0-3.1-1.1-5.8-3.3-8C17.2,41.7,14.5,40.6,11.3,40.6z M17.1,57.7c-1.6,1.6-3.5,2.4-5.7,2.4
	c-2.2,0-4.2-0.8-5.7-2.4C4,56.1,3.2,54.2,3.2,52c0-2.2,0.8-4.2,2.4-5.7c1.6-1.6,3.5-2.4,5.7-2.4c2.2,0,4.2,0.8,5.7,2.4
	c1.6,1.6,2.4,3.5,2.4,5.7C19.5,54.2,18.7,56.1,17.1,57.7z M117.9,62.8c-0.3,0.3-0.7,0.5-1.1,0.5s-0.8-0.2-1.1-0.5s-0.5-0.7-0.5-1.1
	V51.2c0-2-0.7-3.7-2.1-5.2c-1.4-1.4-3.1-2.1-5.2-2.1s-3.7,0.7-5.2,2.1c-1.4,1.4-2.1,3.1-2.1,5.2v10.5c0,0.4-0.2,0.8-0.5,1.1
	c-0.3,0.3-0.7,0.5-1.1,0.5s-0.8-0.2-1.1-0.5s-0.5-0.7-0.5-1.1V32.5c0-0.4,0.2-0.8,0.5-1.1c0.3-0.3,0.7-0.5,1.1-0.5s0.8,0.2,1.1,0.5
	c0.3,0.3,0.5,0.7,0.5,1.1v11c2-2,4.5-2.9,7.3-2.9c2.9,0,5.4,1,7.4,3.1c2.1,2.1,3.1,4.5,3.1,7.4v10.5
	C118.3,62.1,118.2,62.5,117.9,62.8z M42.3,41.9c0.3,0.3,0.5,0.7,0.5,1.2c0,0.4-0.2,0.8-0.5,1.1c-0.3,0.3-0.7,0.5-1.1,0.5
	c-0.3,0-0.5-0.1-0.7-0.2c-1-0.4-2-0.6-3.2-0.6c-2.2,0-4.2,0.8-5.7,2.4s-2.4,3.5-2.4,5.7v9.7c0,0.4-0.2,0.8-0.5,1.1
	c-0.3,0.3-0.7,0.5-1.1,0.5s-0.8-0.2-1.1-0.5s-0.5-0.7-0.5-1.1V42.2c0-0.4,0.2-0.8,0.5-1.1c0.3-0.3,0.7-0.5,1.1-0.5s0.8,0.2,1.1,0.5
	c0.3,0.3,0.5,0.7,0.5,1.1V44c2.3-2.3,5-3.4,8.1-3.4c1.6,0,3,0.3,4.4,0.8C41.9,41.5,42.1,41.7,42.3,41.9z M183.8,9.7
	c0-2.6,2.1-4.7,4.7-4.7s4.7,2.1,4.7,4.7s-2.1,4.7-4.7,4.7S183.8,12.3,183.8,9.7z M64.8,59.9v1.8c0,0.4,0.2,0.8,0.5,1.1
	c0.3,0.3,0.7,0.5,1.1,0.5c0.4,0,0.8-0.2,1.1-0.5s0.5-0.7,0.5-1.1V52c0-3.1-1.1-5.8-3.3-8c-2.2-2.2-4.9-3.3-8-3.3
	c-3.1,0-5.8,1.1-8,3.3c-2.2,2.2-3.3,4.9-3.3,8c0,3.1,1.1,5.8,3.3,8c2.2,2.2,4.9,3.3,8,3.3C59.9,63.3,62.6,62.2,64.8,59.9z M48.6,52
	c0-2.2,0.8-4.2,2.4-5.7c1.6-1.6,3.5-2.4,5.7-2.4c2.2,0,4.2,0.8,5.7,2.4c1.6,1.6,2.4,3.5,2.4,5.7c0,2.2-0.8,4.2-2.4,5.7
	c-1.6,1.6-3.5,2.4-5.7,2.4c-2.2,0-4.2-0.8-5.7-2.4C49.4,56.1,48.6,54.2,48.6,52z M143.4,9.7c0-2.6,2.1-4.7,4.7-4.7s4.7,2.1,4.7,4.7
	s-2.1,4.7-4.7,4.7S143.4,12.3,143.4,9.7z M55.9,92.3c-0.5,0.5-0.7,1.2-0.7,2c0,0.5,0.1,1,0.3,1.4c0.2,0.4,0.5,0.7,0.9,1
	c0.4,0.2,0.9,0.4,1.4,0.4c0.7,0,1.2-0.2,1.6-0.5c0.5-0.4,1-0.4,1.3-0.1c0.3,0.2,0.4,0.5,0.4,0.8c0,0.2-0.1,0.4-0.3,0.6
	c-0.8,0.8-1.9,1.2-3.1,1.2c-0.9,0-1.7-0.2-2.4-0.6c-0.7-0.4-1.3-1-1.7-1.7c-0.4-0.7-0.6-1.5-0.6-2.4c0-0.9,0.2-1.7,0.6-2.4
	c0.4-0.7,1-1.3,1.7-1.7c0.7-0.4,1.5-0.6,2.4-0.6c1.3,0,2.5,0.5,3.4,1.5c0.1,0.2,0.2,0.4,0.2,0.6c0,0.2-0.1,0.5-0.5,0.8
	c-0.1,0.1-0.3,0.2-0.5,0.2c-0.3,0-0.6-0.1-0.8-0.4c-0.2-0.3-0.5-0.5-0.8-0.6c-0.3-0.1-0.6-0.2-1-0.2C57,91.6,56.4,91.8,55.9,92.3z
	 M71.7,91.9c0.4,0.7,0.6,1.5,0.6,2.5c0,0.9-0.2,1.7-0.6,2.4c-0.4,0.7-1,1.3-1.7,1.7c-0.7,0.4-1.5,0.6-2.4,0.6
	c-0.9,0-1.7-0.2-2.4-0.6c-0.7-0.4-1.3-1-1.7-1.7c-0.4-0.7-0.6-1.5-0.6-2.4c0-0.9,0.2-1.7,0.6-2.5c0.4-0.7,1-1.3,1.7-1.7
	c0.7-0.4,1.5-0.6,2.4-0.6c0.9,0,1.7,0.2,2.4,0.6C70.7,90.6,71.3,91.2,71.7,91.9z M68.9,96.8c0.4-0.2,0.7-0.6,0.9-1
	c0.2-0.4,0.3-0.9,0.3-1.4c0-0.5-0.1-1-0.3-1.5c-0.2-0.4-0.5-0.8-0.9-1c-0.4-0.2-0.9-0.4-1.4-0.4s-1,0.1-1.4,0.4
	c-0.4,0.2-0.7,0.6-0.9,1c-0.2,0.4-0.3,0.9-0.3,1.5c0,0.5,0.1,1,0.3,1.4c0.2,0.4,0.5,0.7,0.9,1C67,97.3,68.1,97.3,68.9,96.8
	C68.9,96.8,68.9,96.8,68.9,96.8z M77,96.9h-0.4c-0.1,0-0.2,0-0.4-0.3c-0.1-0.2-0.2-0.5-0.2-0.9V87c0-0.3-0.1-0.6-0.3-0.8
	c-0.4-0.4-1.1-0.4-1.5,0c-0.2,0.2-0.3,0.5-0.3,0.8v8.8c0,0.6,0.1,1.2,0.3,1.7c0.2,0.5,0.5,0.9,1,1.2c0.4,0.3,0.9,0.4,1.4,0.4
	c0.4,0,0.7-0.1,0.9-0.3c0.3-0.2,0.4-0.5,0.4-0.8c0-0.3-0.1-0.6-0.3-0.8C77.5,97,77.3,96.9,77,96.9z M81.9,96.9h-0.4
	c-0.1,0-0.2,0-0.4-0.3c-0.1-0.2-0.2-0.5-0.2-0.9V87c0-0.3-0.1-0.6-0.3-0.8c-0.4-0.4-1.1-0.4-1.5,0c-0.2,0.2-0.3,0.5-0.3,0.8v8.8
	c0,0.6,0.1,1.2,0.3,1.7c0.2,0.5,0.5,0.9,1,1.2c0.4,0.3,0.9,0.4,1.4,0.4c0.4,0,0.7-0.1,0.9-0.3c0.3-0.2,0.4-0.5,0.4-0.8
	c0-0.3-0.1-0.6-0.3-0.8C82.4,97,82.2,96.9,81.9,96.9z M91.8,92c0.4,0.7,0.6,1.5,0.6,2.4V98c0,0.3-0.1,0.6-0.3,0.8
	c-0.4,0.4-1.1,0.4-1.5,0c-0.2-0.2-0.3-0.4-0.3-0.7c-0.3,0.3-0.6,0.5-1,0.7c-0.6,0.3-1.2,0.4-1.9,0.4c-0.8,0-1.6-0.2-2.2-0.6
	c-0.7-0.4-1.2-1-1.6-1.7c-0.4-0.7-0.6-1.5-0.6-2.4c0-0.9,0.2-1.7,0.6-2.4c0.4-0.7,1-1.3,1.7-1.7c0.7-0.4,1.5-0.6,2.4-0.6
	c0.9,0,1.7,0.2,2.4,0.6C90.9,90.7,91.4,91.2,91.8,92z M90,93c-0.2-0.4-0.5-0.8-0.9-1c-0.4-0.2-0.8-0.4-1.3-0.4
	c-0.5,0-0.9,0.1-1.3,0.4c-0.4,0.2-0.7,0.6-0.9,1c-0.2,0.4-0.3,0.9-0.3,1.4s0.1,1,0.3,1.4c0.2,0.4,0.6,0.8,0.9,1
	c0.8,0.5,1.9,0.5,2.7,0c0,0,0,0,0,0c0.4-0.2,0.7-0.6,0.9-1c0.2-0.4,0.3-0.9,0.3-1.4C90.4,93.9,90.3,93.4,90,93z M103.3,92
	c0.4,0.7,0.6,1.5,0.6,2.4c0,0.9-0.2,1.7-0.6,2.4c-0.4,0.7-1,1.3-1.7,1.7c-0.7,0.4-1.5,0.6-2.4,0.6c-0.9,0-1.7-0.2-2.4-0.6
	c-0.7-0.4-1.3-1-1.7-1.7s-0.6-1.5-0.6-2.4V87c0-0.3,0.1-0.6,0.3-0.8c0.4-0.4,1.2-0.4,1.5,0c0.2,0.2,0.3,0.5,0.3,0.8v3.7
	c0.3-0.3,0.6-0.5,1-0.7c0.6-0.3,1.2-0.4,1.9-0.4c0.8,0,1.6,0.2,2.2,0.6C102.4,90.7,102.9,91.2,103.3,92z M100.5,96.8
	c0.4-0.2,0.7-0.6,0.9-1c0.2-0.4,0.3-0.9,0.3-1.4c0-0.5-0.1-1-0.3-1.4c-0.2-0.4-0.5-0.8-0.9-1c-0.4-0.2-0.8-0.4-1.3-0.4
	c-0.5,0-0.9,0.1-1.3,0.4c-0.4,0.2-0.7,0.6-0.9,1c-0.2,0.4-0.3,0.9-0.3,1.4c0,0.5,0.1,1,0.3,1.4c0.2,0.4,0.5,0.8,0.9,1
	C98.6,97.3,99.7,97.3,100.5,96.8z M114.2,91.9c0.4,0.7,0.6,1.5,0.6,2.5c0,0.9-0.2,1.7-0.6,2.4c-0.4,0.7-1,1.3-1.7,1.7
	c-0.7,0.4-1.5,0.6-2.4,0.6c-0.9,0-1.7-0.2-2.4-0.6c-0.7-0.4-1.3-1-1.7-1.7c-0.4-0.7-0.6-1.5-0.6-2.4c0-0.9,0.2-1.7,0.6-2.5
	c0.4-0.7,1-1.3,1.7-1.7c0.7-0.4,1.5-0.6,2.4-0.6c0.9,0,1.7,0.2,2.4,0.6C113.2,90.6,113.8,91.2,114.2,91.9z M111.4,96.8
	c0.4-0.2,0.7-0.6,0.9-1c0.2-0.4,0.3-0.9,0.3-1.4c0-0.5-0.1-1-0.3-1.5c-0.2-0.4-0.5-0.8-0.9-1c-0.4-0.2-0.9-0.4-1.4-0.4
	c-0.5,0-1,0.1-1.4,0.4c-0.4,0.2-0.7,0.6-0.9,1c-0.2,0.4-0.3,0.9-0.3,1.5c0,0.5,0.1,1,0.3,1.4c0.2,0.4,0.5,0.7,0.9,1
	C109.5,97.3,110.7,97.3,111.4,96.8C111.4,96.8,111.4,96.8,111.4,96.8z M122.8,89.9c-0.4-0.2-0.9-0.3-1.5-0.3c-0.6,0-1.1,0.1-1.6,0.3
	c-0.3,0.1-0.6,0.3-0.9,0.5c-0.1-0.5-0.5-0.8-1-0.8c-0.3,0-0.6,0.1-0.8,0.3c-0.2,0.2-0.3,0.5-0.3,0.8V98c0,0.3,0.1,0.6,0.3,0.8
	c0.2,0.2,0.4,0.3,0.8,0.3c0.3,0,0.6-0.1,0.8-0.3c0.2-0.2,0.3-0.4,0.3-0.8v-4.7c0-0.5,0.2-0.9,0.6-1.2c0.4-0.3,1-0.5,1.7-0.5
	c0.3,0,0.6,0,1,0.1c0.1,0,0.2,0,0.3,0c0.4,0,0.8-0.2,0.9-0.7c0-0.1,0-0.1,0-0.2C123.4,90.5,123.3,90.2,122.8,89.9z M132.3,92
	c0.4,0.7,0.6,1.5,0.6,2.4V98c0,0.3-0.1,0.6-0.3,0.8c-0.4,0.4-1.1,0.4-1.5,0c-0.2-0.2-0.3-0.4-0.3-0.7c-0.3,0.3-0.6,0.5-1,0.7
	c-0.6,0.3-1.2,0.4-1.9,0.4c-0.8,0-1.6-0.2-2.2-0.6c-0.7-0.4-1.2-1-1.6-1.7c-0.4-0.7-0.6-1.5-0.6-2.4c0-0.9,0.2-1.7,0.6-2.4
	c0.4-0.7,1-1.3,1.7-1.7s1.5-0.6,2.4-0.6c0.9,0,1.7,0.2,2.4,0.6C131.4,90.7,131.9,91.2,132.3,92z M130.5,93c-0.2-0.4-0.5-0.8-0.9-1
	c-0.4-0.2-0.8-0.4-1.3-0.4c-0.5,0-0.9,0.1-1.3,0.4c-0.4,0.2-0.7,0.6-0.9,1c-0.2,0.4-0.3,0.9-0.3,1.4s0.1,1,0.3,1.4
	c0.2,0.4,0.6,0.8,0.9,1c0.8,0.5,1.9,0.5,2.7,0c0,0,0,0,0,0c0.4-0.2,0.7-0.6,0.9-1c0.2-0.4,0.3-0.9,0.3-1.4
	C130.9,93.9,130.8,93.4,130.5,93z M139.6,97.2c-0.2-0.2-0.4-0.3-0.7-0.3h-0.6c-0.3,0-0.5-0.1-0.7-0.3c-0.2-0.2-0.3-0.5-0.3-0.9v-3.8
	h1.1c0.3,0,0.5-0.1,0.7-0.3c0.2-0.2,0.3-0.4,0.3-0.7c0-0.3-0.1-0.5-0.3-0.7c-0.2-0.2-0.4-0.3-0.7-0.3h-1.1v-2.1
	c0-0.3-0.1-0.6-0.3-0.8c-0.4-0.4-1.1-0.4-1.5,0c-0.2,0.2-0.3,0.5-0.3,0.8V90h-0.5c-0.3,0-0.5,0.1-0.7,0.3c-0.2,0.2-0.3,0.4-0.3,0.7
	c0,0.3,0.1,0.5,0.3,0.7c0.2,0.2,0.4,0.3,0.7,0.3h0.5v3.8c0,0.6,0.1,1.2,0.4,1.7c0.3,0.5,0.6,0.9,1.1,1.2c0.5,0.3,1,0.5,1.6,0.5h0.3
	c0.3,0,0.6-0.1,0.9-0.3c0.2-0.2,0.4-0.5,0.4-0.8C139.9,97.7,139.8,97.4,139.6,97.2C139.6,97.2,139.6,97.2,139.6,97.2z M141.7,86.5
	c-0.3,0.3-0.4,0.6-0.4,0.9c0,0.4,0.1,0.7,0.4,0.9c0.3,0.3,0.6,0.4,0.9,0.4s0.7-0.1,0.9-0.4c0.3-0.3,0.4-0.6,0.4-0.9
	c0-0.4-0.1-0.7-0.4-0.9C143.1,86,142.2,86,141.7,86.5z M141.9,90c-0.2,0.2-0.3,0.5-0.3,0.8V98c0,0.3,0.1,0.6,0.3,0.8
	c0.2,0.2,0.5,0.3,0.8,0.3c0.3,0,0.6-0.1,0.8-0.3c0.2-0.2,0.3-0.5,0.3-0.8v-7.2c0-0.3-0.1-0.6-0.3-0.8C143,89.6,142.3,89.6,141.9,90z
	 M153.9,90.2c-0.1-0.2-0.2-0.3-0.4-0.4c-0.3-0.1-0.7-0.2-1,0c-0.2,0.1-0.3,0.2-0.4,0.4l-2.6,5.6l-2.6-5.6c-0.1-0.2-0.2-0.3-0.4-0.4
	c-0.3-0.2-0.7-0.2-1,0c-0.5,0.2-0.6,0.6-0.6,0.9c0,0.1,0,0.3,0.1,0.4l3.4,7.2c0.1,0.2,0.3,0.4,0.4,0.5c0.2,0.1,0.4,0.2,0.6,0.2
	c0.3,0,0.7-0.1,1-0.7l3.4-7.2c0.1-0.1,0.1-0.3,0.1-0.4C154.1,90.5,154,90.3,153.9,90.2C153.9,90.2,153.9,90.2,153.9,90.2z
	 M162.8,91.9c0.3,0.7,0.5,1.5,0.5,2.4c0,0.3-0.1,0.5-0.3,0.7c-0.2,0.2-0.4,0.3-0.7,0.3h-5.8c0.1,0.6,0.4,1,0.9,1.4
	c0.5,0.4,1.2,0.6,1.9,0.6c0.3,0,0.6-0.1,0.9-0.2c0.3-0.1,0.6-0.2,0.8-0.4c0.4-0.3,1-0.3,1.3,0c0.2,0.2,0.4,0.5,0.4,0.7
	c0,0.3-0.1,0.5-0.4,0.7c-0.4,0.3-0.9,0.6-1.4,0.8c-0.6,0.2-1.1,0.3-1.6,0.3c-0.9,0-1.8-0.2-2.5-0.6c-0.7-0.4-1.3-1-1.7-1.7
	c-0.4-0.7-0.6-1.5-0.6-2.4c0-0.9,0.2-1.7,0.6-2.4c0.4-0.7,0.9-1.3,1.7-1.7c0.7-0.4,1.5-0.6,2.4-0.6c0.9,0,1.6,0.2,2.3,0.6
	C162,90.6,162.5,91.2,162.8,91.9z M157.3,92.1c-0.4,0.3-0.6,0.8-0.8,1.3h4.8c-0.1-0.5-0.3-1-0.7-1.3c-0.4-0.4-0.9-0.6-1.6-0.6
	C158.3,91.5,157.7,91.7,157.3,92.1z M175.7,89.9c-0.4-0.2-0.9-0.3-1.5-0.3c-0.6,0-1.1,0.1-1.6,0.3c-0.3,0.1-0.6,0.3-0.9,0.5
	c-0.1-0.5-0.5-0.8-1-0.8c-0.3,0-0.6,0.1-0.8,0.3c-0.2,0.2-0.3,0.5-0.3,0.8V98c0,0.3,0.1,0.6,0.3,0.8c0.2,0.2,0.4,0.3,0.8,0.3
	c0.3,0,0.6-0.1,0.8-0.3c0.2-0.2,0.3-0.4,0.3-0.8v-4.7c0-0.5,0.2-0.9,0.6-1.2c0.4-0.3,1-0.5,1.7-0.5c0.3,0,0.6,0,1,0.1
	c0.1,0,0.2,0,0.3,0c0.4,0,0.8-0.2,0.9-0.7c0-0.1,0-0.1,0-0.2C176.4,90.5,176.2,90.2,175.7,89.9z M185.3,91.9
	c0.4,0.7,0.6,1.5,0.6,2.5c0,0.9-0.2,1.7-0.6,2.4c-0.4,0.7-1,1.3-1.7,1.7c-0.7,0.4-1.5,0.6-2.4,0.6c-0.9,0-1.7-0.2-2.4-0.6
	c-0.7-0.4-1.3-1-1.7-1.7c-0.4-0.7-0.6-1.5-0.6-2.4c0-0.9,0.2-1.7,0.6-2.5c0.4-0.7,1-1.3,1.7-1.7c0.7-0.4,1.5-0.6,2.4-0.6
	c0.9,0,1.7,0.2,2.4,0.6C184.3,90.6,184.9,91.2,185.3,91.9z M182.5,96.8c0.4-0.2,0.7-0.6,0.9-1c0.2-0.4,0.3-0.9,0.3-1.4
	c0-0.5-0.1-1-0.3-1.5c-0.2-0.4-0.5-0.8-0.9-1c-0.4-0.2-0.9-0.4-1.4-0.4s-1,0.1-1.4,0.4c-0.4,0.2-0.7,0.6-0.9,1
	c-0.2,0.4-0.3,0.9-0.3,1.5c0,0.5,0.1,1,0.3,1.4c0.2,0.4,0.5,0.7,0.9,1C180.6,97.3,181.7,97.3,182.5,96.8
	C182.5,96.8,182.5,96.8,182.5,96.8z M196.2,90c-0.4-0.4-1.1-0.4-1.5,0c-0.2,0.2-0.3,0.5-0.3,0.8v4.6c0,0.3-0.1,0.6-0.3,0.9
	c-0.2,0.3-0.4,0.5-0.8,0.7c-0.3,0.2-0.7,0.3-1.1,0.3c-0.7,0-1.3-0.2-1.7-0.6c-0.4-0.4-0.6-1-0.6-1.8v-4c0-0.3-0.1-0.6-0.3-0.8
	c-0.4-0.4-1.1-0.4-1.5,0c-0.2,0.2-0.3,0.5-0.3,0.8v4c0,0.9,0.2,1.7,0.5,2.4c0.4,0.7,0.9,1.2,1.5,1.5c0.6,0.3,1.3,0.5,2.1,0.5
	c0.6,0,1.1-0.1,1.6-0.3c0.3-0.1,0.7-0.3,0.9-0.5c0,0.2,0.1,0.3,0.3,0.4c0.4,0.4,1.2,0.4,1.6,0c0.2-0.2,0.3-0.5,0.3-0.8v-7.2
	C196.5,90.4,196.4,90.2,196.2,90C196.2,90,196.2,90,196.2,90z M203.6,97.2c-0.2-0.2-0.4-0.3-0.7-0.3h-0.6c-0.3,0-0.5-0.1-0.7-0.3
	c-0.2-0.2-0.3-0.5-0.3-0.9v-3.8h1.1c0.3,0,0.5-0.1,0.7-0.3c0.2-0.2,0.3-0.4,0.3-0.7c0-0.3-0.1-0.5-0.3-0.7c-0.2-0.2-0.4-0.3-0.7-0.3
	h-1.1v-2.1c0-0.3-0.1-0.6-0.3-0.8c-0.4-0.4-1.1-0.4-1.5,0c-0.2,0.2-0.3,0.5-0.3,0.8V90h-0.5c-0.3,0-0.5,0.1-0.7,0.3
	c-0.2,0.2-0.3,0.4-0.3,0.7c0,0.3,0.1,0.5,0.3,0.7c0.2,0.2,0.4,0.3,0.7,0.3h0.5v3.8c0,0.6,0.1,1.2,0.4,1.7c0.3,0.5,0.6,0.9,1.1,1.2
	c0.5,0.3,1,0.5,1.6,0.5h0.3c0.3,0,0.6-0.1,0.9-0.3c0.2-0.2,0.4-0.5,0.4-0.8C203.9,97.7,203.8,97.4,203.6,97.2
	C203.6,97.2,203.6,97.2,203.6,97.2z M205.7,86.5c-0.3,0.3-0.4,0.6-0.4,0.9c0,0.4,0.1,0.7,0.4,0.9c0.3,0.3,0.6,0.4,0.9,0.4
	s0.7-0.1,0.9-0.4c0.3-0.3,0.4-0.6,0.4-0.9c0-0.4-0.1-0.7-0.4-0.9C207,86,206.2,86,205.7,86.5z M205.9,90c-0.2,0.2-0.3,0.5-0.3,0.8
	V98c0,0.3,0.1,0.6,0.3,0.8c0.2,0.2,0.5,0.3,0.8,0.3c0.3,0,0.6-0.1,0.8-0.3c0.2-0.2,0.3-0.5,0.3-0.8v-7.2c0-0.3-0.1-0.6-0.3-0.8
	C207,89.6,206.3,89.6,205.9,90z M217.1,90.1c-0.6-0.3-1.3-0.5-2.1-0.5c-0.6,0-1.1,0.1-1.6,0.3c-0.3,0.1-0.7,0.3-0.9,0.5
	c0-0.2-0.1-0.3-0.3-0.4c-0.4-0.4-1.1-0.4-1.5,0c-0.2,0.2-0.3,0.5-0.3,0.8V98c0,0.3,0.1,0.6,0.3,0.8c0.4,0.4,1.2,0.4,1.6,0
	c0.2-0.2,0.3-0.5,0.3-0.8v-4.6c0-0.3,0.1-0.6,0.3-0.9c0.2-0.3,0.4-0.5,0.8-0.7c0.3-0.2,0.7-0.2,1.1-0.2c0.7,0,1.3,0.2,1.7,0.6
	c0.4,0.4,0.6,1,0.6,1.8v4c0,0.3,0.1,0.6,0.3,0.8c0.2,0.2,0.5,0.3,0.8,0.3s0.6-0.1,0.8-0.3c0.2-0.2,0.3-0.5,0.3-0.8v-4
	c0-0.9-0.2-1.7-0.5-2.4C218.2,91,217.7,90.5,217.1,90.1z M230.3,94.4v3.5c0,0.9-0.2,1.7-0.6,2.5c-0.4,0.7-1,1.3-1.7,1.8
	c-0.7,0.4-1.5,0.6-2.5,0.6c-0.8,0-1.6-0.2-2.3-0.5c-0.7-0.3-1.3-0.8-1.8-1.4c-0.2-0.2-0.2-0.4-0.2-0.6c0-0.2,0.1-0.5,0.4-0.8
	c0.5-0.4,1.1-0.2,1.5,0.2c0.3,0.3,0.6,0.6,1,0.8c0.8,0.4,1.9,0.4,2.7-0.1c0.4-0.2,0.7-0.6,0.9-1c0.2-0.5,0.4-1,0.4-1.6
	c-0.3,0.3-0.6,0.6-0.9,0.8c-0.6,0.4-1.3,0.5-2,0.5c-0.8,0-1.6-0.2-2.3-0.6c-0.7-0.4-1.2-1-1.6-1.7c-0.4-0.7-0.6-1.5-0.6-2.4
	c0-0.9,0.2-1.7,0.6-2.5c0.4-0.7,1-1.3,1.7-1.7c0.7-0.4,1.5-0.6,2.4-0.6c0.9,0,1.7,0.2,2.4,0.6c0.7,0.4,1.3,1,1.7,1.7
	C230.1,92.6,230.3,93.5,230.3,94.4z M227.9,92.9c-0.2-0.4-0.5-0.8-0.9-1c-0.4-0.2-0.9-0.4-1.4-0.4s-1,0.1-1.4,0.4
	c-0.4,0.2-0.7,0.6-0.9,1c-0.2,0.4-0.3,0.9-0.3,1.5c0,0.5,0.1,1,0.3,1.4c0.2,0.4,0.5,0.7,0.9,1c0.8,0.5,1.9,0.5,2.7,0c0,0,0,0,0,0
	c0.4-0.2,0.7-0.6,0.9-1c0.2-0.4,0.3-0.9,0.3-1.4C228.2,93.8,228.1,93.4,227.9,92.9z M198.6,61.5c-0.9,0.6-1.9,1-3,1.3
	c-1.1,0.3-2.2,0.5-3.3,0.5c-3.4,0-6.3-1.3-8.7-4c-0.3-0.4-0.4-0.8-0.4-1.3c0-0.6,0.2-1.1,0.6-1.5s0.9-0.6,1.5-0.6
	c0.4,0,0.8,0.1,1.1,0.4c0.3,0.3,0.6,0.5,0.9,0.8c1.4,1.4,3.1,2.1,5,2.1c1.9,0,3.5-0.6,4.7-1.8c0.2-0.2,0.3-0.5,0.3-0.8
	c0-0.4-0.2-0.6-0.5-0.8l-9.5-3.1c-1.3-0.5-2.2-1-2.7-1.5h0c-1-1-1.5-2.3-1.5-3.7c0-1,0.3-2,0.8-2.8c0.5-0.8,1.3-1.5,2.1-2.1
	s1.9-1,3-1.3c1.1-0.3,2.2-0.5,3.3-0.5c3.4,0,6.3,1.4,8.7,4.1c0.3,0.4,0.4,0.8,0.4,1.3c0,0.6-0.2,1.1-0.6,1.5
	c-0.4,0.4-0.9,0.6-1.5,0.6c-0.4,0-0.8-0.1-1.1-0.4c-0.3-0.2-0.6-0.5-0.9-0.8c-1.4-1.4-3.1-2.1-5-2.1c-1.9,0-3.5,0.6-4.7,1.8
	c-0.2,0.2-0.3,0.5-0.3,0.9c0,0.4,0.2,0.6,0.5,0.8l9.5,3.1c1.3,0.5,2.2,1,2.7,1.5h0c1,1,1.5,2.3,1.5,3.7c0,1-0.3,2-0.8,2.8
	C200.2,60.2,199.5,60.9,198.6,61.5z M215.9,63.3c-5.5,0-8.3-2.8-8.3-8.3V44.9h-1c-0.6,0-1.1-0.2-1.5-0.6c-0.4-0.4-0.6-0.9-0.6-1.5
	c0-0.6,0.2-1.1,0.6-1.5c0.4-0.4,0.9-0.6,1.5-0.6h1V33c0-0.6,0.2-1.1,0.6-1.5c0.4-0.4,0.9-0.6,1.5-0.6c0.6,0,1.1,0.2,1.5,0.6
	c0.4,0.4,0.6,0.9,0.6,1.5v7.6h2.5c0.6,0,1.1,0.2,1.5,0.6c0.4,0.4,0.6,0.9,0.6,1.5c0,0.6-0.2,1.1-0.6,1.5c-0.4,0.4-0.9,0.6-1.5,0.6
	h-2.5v10.2c0,2.7,1.4,4,4.1,4c0.6,0,1.1,0.2,1.5,0.6c0.4,0.4,0.6,0.9,0.6,1.5c0,0.6-0.2,1.1-0.6,1.5C217,63.1,216.5,63.3,215.9,63.3
	z M239,43.9c-2.2-2.2-4.9-3.3-8-3.3c-3.1,0-5.8,1.1-8,3.3c-2.2,2.2-3.3,4.9-3.3,8c0,3.1,1.1,5.8,3.3,8c2.2,2.2,4.9,3.3,8,3.3
	c2.9,0,5.3-0.9,7.4-2.8c0.4-0.4,0.6-0.9,0.6-1.5c0-0.6-0.2-1.1-0.6-1.5s-0.9-0.6-1.5-0.6c-0.5,0-1,0.2-1.4,0.5
	c-0.6,0.5-1.3,0.9-2.1,1.2c-0.7,0.3-1.6,0.4-2.5,0.4c-0.8,0-1.5-0.1-2.3-0.4c-0.7-0.2-1.4-0.6-2-1s-1.1-1-1.6-1.6
	c-0.4-0.6-0.8-1.3-1-2h16c0.6,0,1.1-0.2,1.5-0.6c0.4-0.4,0.6-0.9,0.6-1.5c0-1.6-0.3-3-0.8-4.4C241,46.3,240.2,45,239,43.9z
	 M224.2,49.9c0.2-0.7,0.5-1.4,1-2c0.4-0.6,1-1.1,1.6-1.6c0.6-0.4,1.3-0.8,2-1c0.7-0.2,1.5-0.4,2.2-0.4s1.5,0.1,2.2,0.4s1.4,0.6,2,1
	c0.6,0.4,1.1,1,1.6,1.6c0.5,0.6,0.8,1.3,1,2H224.2z M283.5,56.6c0,1-0.3,2-0.8,2.8c-0.5,0.8-1.3,1.5-2.1,2.1c-0.9,0.6-1.9,1-3,1.3
	c-1.1,0.3-2.2,0.5-3.3,0.5c-3.4,0-6.3-1.3-8.7-4c-0.3-0.4-0.4-0.8-0.4-1.3c0-0.6,0.2-1.1,0.6-1.5c0.4-0.4,0.9-0.6,1.5-0.6
	c0.4,0,0.8,0.1,1.1,0.4c0.3,0.3,0.6,0.5,0.9,0.8c1.4,1.4,3.1,2.1,5,2.1c1.9,0,3.5-0.6,4.7-1.8c0.2-0.2,0.3-0.5,0.3-0.8
	c0-0.4-0.2-0.6-0.5-0.8l-9.5-3.1c-1.3-0.5-2.2-1-2.7-1.5h0c-1-1-1.5-2.3-1.5-3.7c0-1,0.3-2,0.8-2.8s1.3-1.5,2.1-2.1
	c0.9-0.6,1.9-1,3-1.3c1.1-0.3,2.2-0.5,3.3-0.5c3.4,0,6.3,1.4,8.7,4.1c0.3,0.4,0.4,0.8,0.4,1.3c0,0.6-0.2,1.1-0.6,1.5
	c-0.4,0.4-0.9,0.6-1.5,0.6c-0.4,0-0.8-0.1-1.1-0.4c-0.3-0.2-0.6-0.5-0.9-0.8c-1.4-1.4-3.1-2.1-5-2.1c-1.9,0-3.5,0.6-4.7,1.8
	c-0.2,0.2-0.3,0.5-0.3,0.9c0,0.4,0.2,0.6,0.5,0.8l9.5,3.1c1.3,0.5,2.2,1,2.7,1.5h0C283,54,283.5,55.2,283.5,56.6z M262.1,42
	c0.4,0.4,0.6,0.8,0.6,1.4c0,0.3-0.1,0.6-0.2,0.8c-0.1,0.3-0.3,0.5-0.5,0.7c-0.2,0.2-0.4,0.3-0.7,0.5c-0.3,0.1-0.5,0.2-0.8,0.2
	c-0.3,0-0.6-0.1-0.9-0.2c-0.9-0.3-1.8-0.5-2.8-0.5c-1,0-1.9,0.2-2.8,0.6c-0.9,0.4-1.6,0.9-2.3,1.5c-0.6,0.6-1.1,1.4-1.5,2.3
	c-0.4,0.9-0.6,1.8-0.6,2.8v9.2c0,0.6-0.2,1.1-0.6,1.5c-0.4,0.4-0.9,0.6-1.5,0.6c-0.6,0-1.1-0.2-1.5-0.6c-0.4-0.4-0.6-0.9-0.6-1.5
	V42.7c0-0.6,0.2-1.1,0.6-1.5c0.4-0.4,0.9-0.6,1.5-0.6c0.6,0,1.1,0.2,1.5,0.6c0.4,0.4,0.6,0.9,0.6,1.5v0.4c1-0.8,2.1-1.4,3.3-1.9
	c1.2-0.4,2.5-0.6,3.8-0.6c0.6,0,1.2,0,1.9,0.1c0.7,0.1,1.3,0.2,1.9,0.4S261.7,41.7,262.1,42z M175.7,60.8v0.4c0,0.6,0.2,1.1,0.6,1.5
	c0.4,0.4,0.9,0.6,1.5,0.6c0.6,0,1.1-0.2,1.5-0.6c0.4-0.4,0.6-0.9,0.6-1.5V52c0-3.1-1.1-5.8-3.3-8c-2.2-2.2-4.9-3.3-8-3.3
	c-3.1,0-5.8,1.1-8,3.3c-2.2,2.2-3.3,4.9-3.3,8c0,3.1,1.1,5.8,3.3,8c2.2,2.2,4.9,3.3,8,3.3c1.4,0,2.6-0.2,3.8-0.6
	C173.6,62.2,174.7,61.6,175.7,60.8z M168.6,59.1c-1,0-1.9-0.2-2.8-0.6c-0.9-0.4-1.6-0.9-2.2-1.5c-0.6-0.6-1.1-1.4-1.5-2.3
	c-0.4-0.9-0.6-1.8-0.6-2.8c0-1,0.2-1.9,0.6-2.8c0.4-0.9,0.9-1.6,1.5-2.3c0.6-0.6,1.4-1.2,2.2-1.5c0.9-0.4,1.8-0.6,2.8-0.6
	c1,0,1.9,0.2,2.8,0.6s1.6,0.9,2.3,1.5c0.6,0.6,1.1,1.4,1.5,2.3c0.4,0.9,0.6,1.8,0.6,2.7c0,1-0.2,1.9-0.6,2.7
	c-0.4,0.9-0.9,1.6-1.5,2.3s-1.4,1.2-2.3,1.5C170.5,58.9,169.6,59.1,168.6,59.1z M152.9,46.2c0.5,1.1,0.7,2.3,0.7,3.5v11.5
	c0,0.6-0.2,1.1-0.6,1.5c-0.4,0.4-0.9,0.6-1.5,0.6c-0.6,0-1.1-0.2-1.5-0.6c-0.4-0.4-0.6-0.9-0.6-1.5V49.7c0-0.6-0.1-1.3-0.4-1.8
	c-0.2-0.6-0.6-1.1-1-1.5c-0.4-0.4-0.9-0.8-1.5-1c-0.6-0.3-1.2-0.4-1.9-0.4c-0.7,0-1.3,0.1-1.9,0.4c-0.6,0.3-1.1,0.6-1.5,1
	c-0.4,0.4-0.8,0.9-1,1.5s-0.4,1.2-0.4,1.9v11.5c0,0.6-0.2,1.1-0.6,1.5c-0.4,0.4-0.9,0.6-1.5,0.6c-0.6,0-1.1-0.2-1.5-0.6
	c-0.4-0.4-0.6-0.9-0.6-1.5V49.7c0-0.7-0.1-1.3-0.4-1.9c-0.3-0.6-0.6-1.1-1-1.5c-0.4-0.4-0.9-0.8-1.5-1c-0.6-0.3-1.2-0.4-1.9-0.4
	c-0.7,0-1.3,0.1-1.9,0.4s-1.1,0.6-1.5,1s-0.8,0.9-1,1.5c-0.2,0.6-0.4,1.2-0.4,1.9v11.5c0,0.6-0.2,1.1-0.6,1.5
	c-0.4,0.4-0.9,0.6-1.5,0.6c-0.6,0-1.1-0.2-1.5-0.6c-0.4-0.4-0.6-0.9-0.6-1.5V42.7c0-0.6,0.2-1.1,0.6-1.5c0.4-0.4,0.9-0.6,1.5-0.6
	c0.5,0,0.9,0.1,1.3,0.4c0.4,0.3,0.6,0.6,0.7,1c1.4-1,3.1-1.4,4.9-1.4c1.4,0,2.6,0.3,3.8,0.8s2.2,1.3,3.1,2.4
	c1.9-2.1,4.2-3.2,6.9-3.2c1.2,0,2.4,0.2,3.5,0.7c1.1,0.5,2.1,1.1,2.9,1.9C151.8,44.1,152.4,45.1,152.9,46.2z"/>
</svg>
